<svg width="280" height="280" viewBox="0 0 280 280" fill="none" xmlns="http://www.w3.org/2000/svg">
<circle cx="140" cy="140" r="140" fill="url(#paint0_linear_101_5)"/>
<path d="M209.748 164.9C209.748 204.226 176.437 231.55 140.374 231.55C104.042 231.55 71 204.226 71 164.361C71 143.322 80.0089 129.134 95.5722 108.365L140.644 48H196.1L155.964 102.35C182.991 105.911 209.748 129.674 209.748 164.9ZM163.328 164.63C163.328 150.982 152.943 141.407 140.374 141.407C127.535 141.407 117.42 151.252 117.42 164.63C117.42 178.009 127.535 188.393 140.374 188.393C152.943 188.393 163.328 178.279 163.328 164.63Z" fill="white"/>
<defs>
<linearGradient id="paint0_linear_101_5" x1="41.6763" y1="248.035" x2="242.37" y2="28.3237" gradientUnits="userSpaceOnUse">
<stop stop-color="#189EFF"/>
<stop offset="1" stop-color="#6BEDF2"/>
</linearGradient>
</defs>
</svg>
